<?xml version="1.0" encoding="utf-8"?>
<!-- Generator: Adobe Illustrator 23.0.2, SVG Export Plug-In . SVG Version: 6.00 Build 0)  -->
<svg version="1.1" id="Layer_1" xmlns="http://www.w3.org/2000/svg" xmlns:xlink="http://www.w3.org/1999/xlink" x="0px" y="0px"
	 width="300px" height="300px" viewBox="0 0 300 300" style="enable-background:new 0 0 300 300;" xml:space="preserve">
<style type="text/css">
	.st0{fill:url(#SVGID_1_);}
	.st1{fill:#F38020;}
	.st2{fill:#97CA56;}
	.st3{fill:#F5E02F;}
	.st4{fill:#A0582F;}
	.st5{fill:#EE4451;}
	.st6{fill:#FDCF9F;}
	.st7{fill:#F48120;}
	.st8{fill:#EEC9BD;}
	.st9{fill:#772C16;}
</style>
<g>
	<g>
		<g>
			
				<linearGradient id="SVGID_1_" gradientUnits="userSpaceOnUse" x1="-143" y1="-559" x2="157" y2="-559" gradientTransform="matrix(6.123234e-17 1 1 -6.123234e-17 709 143)">
				<stop  offset="0" style="stop-color:#FF5B4D"/>
				<stop  offset="1" style="stop-color:#FF3823"/>
			</linearGradient>
			<path class="st0" d="M0,229.9V70.1C0,31.4,31.4,0,70.1,0h159.7C268.6,0,300,31.4,300,70.1v159.7c0,38.7-31.4,70.1-70.1,70.1H70.1
				C31.4,300,0,268.6,0,229.9z"/>
		</g>
	</g>
	<g id="Layer_1_1_">
		<ellipse class="st1" cx="142.9" cy="71.1" rx="40.3" ry="34.5"/>
		<path class="st2" d="M120.2,80.7c0,0-3-4.8,1.2-8.3c4.1-3.5,0.8-8.7-0.5-11.5c-1.3-2.8-2.6-6.9,3.5-7.5c7.3-0.7,10.6-5.4,13.9-8.8
			c3.2-3.5,8.8,1.1,11.4,2.6c2.6,1.5,6-2.2,10.3-2.4c4.4-0.2,6.2,7.4,9.3,8.5c3,1.1,8.8-1.2,12.3,1.8c3.5,3,2.4,8.6,2.9,11.1
			c0.5,2.5,5.1,6.4,5.1,9.7c0,1.7,0.1,3.9,0.1,7.9c0,5.4-10.9,8-10.9,8L120.2,80.7z"/>
		<circle class="st3" cx="126.8" cy="84" r="24.2"/>
		<path class="st4" d="M134.1,126.9l-22.6-22.6c-1.1-1.1-1.1-2.8,0-3.9l22.6-22.6c1.1-1.1,2.8-1.1,3.9,0l22.6,22.6
			c1.1,1.1,1.1,2.8,0,3.9l-22.6,22.6C136.9,128,135.1,128,134.1,126.9z"/>
		<path class="st5" d="M184.6,120.4c5.4-25.6-14.2-47.2-17-46.5c-2.8,0.7-25.6,28.2-25.6,28.2L118,127.7c0,0-5.7,27,21.4,23.5
			S178.7,148.4,184.6,120.4z"/>
		<polygon class="st6" points="98.1,87.5 113.2,97.3 143.6,109.2 151.5,121.8 150.4,254.3 146.6,267.5 132.8,270.7 120.3,270.7 
			105.2,263.6 98.1,249 		"/>
		<polygon class="st7" points="148.8,111.5 171,99.4 189,89.6 187.8,249.7 178.8,262.9 170.5,267.3 146.6,267.5 150.9,252.7 		"/>
		<g>
			<polygon class="st8" points="126.4,126.2 169.1,126.2 187.8,138.5 213.3,163.2 238.2,165 238.2,225.9 211.5,225.9 186.3,241.2 
				187.8,175.6 164.2,151.3 138.4,152.1 126.4,144.3 			"/>
			<rect x="90.5" y="214.8" class="st8" width="20.2" height="22.2"/>
			<rect x="77.7" y="189.5" class="st8" width="32.3" height="22.2"/>
			<rect x="65.7" y="165" class="st8" width="44.8" height="22.2"/>
			<rect x="65.7" y="140.9" class="st8" width="44.8" height="22.2"/>
		</g>
		<path class="st9" d="M240.9,160.4c-0.9-0.9-2-1.4-3.3-1.4h-22.4c-3.3-4.6-11.8-15.7-22.8-24.6V71.6h-0.1c0-0.2,0-0.4,0-0.5
			c0-24-22.1-43.4-49.2-43.4c-26.9,0-48.9,19.2-49.2,42.9h-0.1v63.7H75.9c-6.9,0-17.1,4.6-17.1,17.1c0,5.4,1.9,9.3,4.6,12
			c0.2,0.2,0.3,0.3,0.4,0.4c-3.3,3-5,7.3-5,12.5c0,4.9,1.6,9,4.6,12c3.1,3.1,7,4.3,9.6,4.8c-1.2,2.3-1.8,5.1-1.8,8.1
			c0,4.9,1.6,9,4.6,12c2.6,2.6,5.8,3.9,8.3,4.5c-1.2,2.4-1.9,5.2-1.9,8.3c0,4.9,1.6,9,4.6,12c2.1,2.1,4.5,3.3,6.7,4v1.4
			c0,16.8,13.6,30.4,30.4,30.4H162c16.8,0,30.4-13.6,30.4-30.4v-2.1h0.2l21.4-10.7h23.8c2.6,0,4.6-2.1,4.6-4.6v-62.2
			C242.2,162.5,241.8,161.3,240.9,160.4z M144.4,104.1c9.2-11.1,19.8-23.3,23.5-26.6c2.2,1.8,6.4,6.7,9.6,13.6
			c-4.4,2.5-9.4,4.9-12.2,6.2c-5,2.1-9.4,4-12.5,6c-2.4,1.4-4.5,3-6.2,4.3c-0.9-0.9-1.8-1.8-2.8-2.6L144.4,104.1z M139.6,99.9
			l-1.2,1.3c-4.2-2.5-9.7-4.1-15.5-5.9c-1.3-0.4-2.6-0.8-4.1-1.2c0.5-0.7,1-1.4,1.6-2l7.3-7.3c2.3-2.3,5.3-3.4,8.3-3.4
			c3,0,6,1.1,8.3,3.4l4.3,4.3C146,92.2,143,95.8,139.6,99.9z M157.3,111c5.5-3.3,17.5-7.5,25.9-12.2v29.3
			c-6.4-3.8-13.3-6.3-20.3-6.3c-2.6,0-5.1,0-7.4,0c-1-2.6-2.2-4.9-3.5-7.2C153.4,113.5,155.2,112.2,157.3,111z M178.1,67.7
			c0.5,2.4,1.9,4.4,3.3,6.2c0.4,0.5,1,1.4,1.4,2c0,0.2-0.1,0.4-0.1,0.6l0.2,11.1c-2.9-6-6.5-10.8-9.7-13.9c-2.6-2.5-4.6-3.4-6.4-3
			c-0.7,0.2-2.2,0.5-9.7,8.8c-1.7-11.4-9.7-20.8-20.3-24.5c2.1-1.6,3.7-3.4,5.1-4.9c0,0,0,0,0.1-0.1c0.9,0.5,2.1,1.2,2.8,1.7
			c0.6,0.4,1.2,0.7,1.6,1c1.4,0.8,3,1.2,4.6,1.2c2.5,0,4.6-1,6.3-1.7c0.7-0.3,1.3-0.6,1.9-0.8c0.4,0.5,0.9,1.2,1.2,1.7
			c1.5,2.3,3.4,5.1,6.7,6.2c1.8,0.6,3.5,0.7,4.6,0.7c0.7,0,1.5,0,2.3-0.1c0.6,0,1.3-0.1,1.9-0.1c0.9,0,1.3,0.1,1.4,0.1
			c0.4,0.6,0.4,2.7,0.4,3.8C177.8,65.1,177.9,66.4,178.1,67.7z M142.9,36.6c14.8,0,27.8,6.9,34.8,17.1c-0.6-0.1-1.2-0.1-1.8-0.1
			c-1.5,0-3,0.2-4.2,0.2c-0.9,0-1.8-0.1-2.4-0.3c-3-1.1-4.9-8.5-9.2-8.5c0,0-0.1,0-0.2,0c-3.6,0.2-6.5,2.7-8.9,2.7
			c-0.5,0-0.9-0.1-1.4-0.4c-1.9-1.1-5.5-3.9-8.5-3.9c-1.1,0-2.1,0.4-3,1.3c-3.2,3.5-6.6,8.1-13.9,8.8c-0.4,0-0.8,0.1-1.1,0.2
			c-7.9,0.9-14.9,4.9-19.8,10.6C107.1,48.5,123.4,36.6,142.9,36.6z M126.8,59.8c12.8,0,23.3,10,24.2,22.6l-2.1-2.1
			c-7.1-7.1-18.6-7.1-25.7,0l-7.3,7.3c-1.3,1.3-2.4,2.8-3.2,4.4c-5.4-2.1-10-4.6-10-7.5h0v-0.9C102.9,70.4,113.6,59.8,126.8,59.8z
			 M71.6,144.7c2.1-1.1,4.4-1.2,4.4-1.2h24.8c0,0,2.3,0,4.4,1.2c1.5,0.8,3.5,2.3,3.5,6.6c0,4.3-2,5.8-3.5,6.6
			c-2.1,1.1-4.4,1.2-4.4,1.2l0,0H75.9c-0.2,0-2.4-0.1-4.4-1.2c-1.5-0.8-3.5-2.3-3.5-6.6C68.1,147,70.1,145.4,71.6,144.7z M70,181.6
			c-1.2-1.2-1.9-3-1.9-5.5c0-4.3,2-5.8,3.5-6.6c2.1-1.1,4.3-1.2,4.4-1.2l0,0l0,0h24.9c0,0,3.7,0.2,5.9,2.3c1.2,1.2,1.9,3,1.9,5.5
			c0,4.3-2,5.8-3.5,6.6c-2.1,1.1-4.4,1.2-4.4,1.2H75.9C75.9,184,72.2,183.8,70,181.6z M82.4,206.5c-1.2-1.2-1.9-3-1.9-5.5
			c0-4.3,2-5.8,3.5-6.6c2.1-1.1,4.4-1.2,4.4-1.2h12.1c0,0,3.7,0.2,5.9,2.3c1.2,1.2,1.9,3,1.9,5.5c0,4.3-2,5.8-3.5,6.6
			c-1.5,0.8-3.1,1.1-3.9,1.1c0,0-0.1,0-0.1,0h-1.4c-0.1,0-0.4,0-0.8,0H88.4C88.3,208.8,84.6,208.7,82.4,206.5z M91.6,225.9
			c0-4.3,2-5.8,3.5-6.6c1.5-0.8,3.1-1.1,3.9-1.1h1.5c0.2,0,0.4,0,0.7,0c0.9,0.1,3.8,0.5,5.6,2.3c1.2,1.2,1.9,3,1.9,5.5
			c0,4.3-2,5.8-3.5,6.6c-2.1,1.1-4.4,1.2-4.4,1.2h-1.4c0,0-3.7-0.2-5.9-2.3C92.2,230.1,91.6,228.3,91.6,225.9z M102.7,243.3v-0.5
			c6.7-0.7,15.2-5.5,15.2-16.9c0-4.9-1.6-9-4.6-12c-0.2-0.2-0.4-0.4-0.6-0.6c2.8-2.7,4.8-6.7,4.8-12.2c0-4.9-1.6-9-4.6-12
			c-0.1-0.1-0.2-0.2-0.3-0.3c3-2.7,5.2-6.8,5.2-12.6c0-4.9-1.6-9-4.6-12c-0.2-0.2-0.3-0.3-0.4-0.4c2.9-2.7,5-6.7,5-12.4
			c0-11.4-8.5-16.2-15.2-16.9v-19.7l0-17.5c10,5.7,25.6,7.9,32.3,12.4c4.3,3,8,6.9,10.8,12.2c-13.2,0-19.9,0-20,0
			c-1.2,0-2.4,0.5-3.3,1.4c-0.9,0.9-1.4,2.1-1.4,3.3c0,6.9,0,13.9,3.9,19.8c4,5.9,11.2,9.1,22,9.7v97.7c0,6.1-5,11.1-11.1,11.1H124
			C112.3,264.7,102.7,255,102.7,243.3z M183.2,243.3c0,11.7-9.6,21.4-21.4,21.4h-9.4c2.1-3.2,3.4-7,3.4-11.1v-97.6h5.1l22.2,22.2
			v60.2c0,0.1,0,0.2,0,0.2v2.8l0,0L183.2,243.3L183.2,243.3z M233,221.3h-20.3c-0.7,0-1.4,0.2-2.1,0.5l-18.2,9.1v-54.7
			c0-1.2-0.5-2.4-1.4-3.3L166.2,148c-0.9-0.9-2.1-1.4-3.3-1.4h-7.1l-9-0.1c-7.4-0.4-12.1-2.3-14.3-5.6c-1.7-2.5-2.1-6-2.3-9.9
			c5.7,0,16.6,0,32.6,0c22.1,0,45.7,34.8,45.9,35.2c0.9,1.3,2.3,2.1,3.9,2.1H233L233,221.3L233,221.3z"/>
	</g>
</g>
</svg>
